<?xml version="1.0" encoding="UTF-8" standalone="no"?><!DOCTYPE svg PUBLIC "-//W3C//DTD SVG 1.1//EN" "http://www.w3.org/Graphics/SVG/1.1/DTD/svg11.dtd"><svg width="100%" height="100%" viewBox="0 0 1062 1062" version="1.1" xmlns="http://www.w3.org/2000/svg" xmlns:xlink="http://www.w3.org/1999/xlink" xml:space="preserve" xmlns:serif="http://www.serif.com/" style="fill-rule:evenodd;clip-rule:evenodd;stroke-linecap:round;stroke-miterlimit:1.5;"><g><path d="M1062.58,158.323c-0,-87.69 -71.193,-158.882 -158.882,-158.882l-745.229,-0c-87.689,-0 -158.882,71.192 -158.882,158.882l0,745.228c0,87.69 71.193,158.882 158.882,158.882l745.229,0c87.689,0 158.882,-71.192 158.882,-158.882l-0,-745.228Z"/><g><path d="M257.459,181.308l535.434,0" style="fill:none;stroke:#fff;stroke-width:83.33px;"/><path d="M257.459,448.812l535.434,-0" style="fill:none;stroke:#fff;stroke-width:83.33px;"/><path d="M792.893,448.812l267.716,-267.504" style="fill:none;stroke:#fff;stroke-width:83.33px;stroke-linejoin:round;"/><path d="M792.893,984.152l267.716,-267.503" style="fill:none;stroke:#fff;stroke-width:50px;stroke-linejoin:round;"/><path d="M792.893,716.315l267.716,-267.503" style="fill:none;stroke:#fff;stroke-width:66.67px;stroke-linejoin:round;"/><path d="M458.247,181.308l-200.788,802.844" style="fill:none;stroke:#fff;stroke-width:83.33px;"/><path d="M592.105,181.308l200.788,802.844" style="fill:none;stroke:#fff;stroke-width:83.33px;"/></g></g></svg>