<?xml version="1.0" encoding="UTF-8" standalone="no"?><!DOCTYPE svg PUBLIC "-//W3C//DTD SVG 1.1//EN" "http://www.w3.org/Graphics/SVG/1.1/DTD/svg11.dtd"><svg width="100%" height="100%" viewBox="0 0 2066 725" version="1.1" xmlns="http://www.w3.org/2000/svg" xmlns:xlink="http://www.w3.org/1999/xlink" xml:space="preserve" xmlns:serif="http://www.serif.com/" style="fill-rule:evenodd;clip-rule:evenodd;stroke-linecap:round;stroke-miterlimit:1.5;"><text x="712.931px" y="638.208px" style="font-family:'ArialRoundedMTBold', 'Arial Rounded MT Bold', sans-serif;font-size:600px;fill:#1a1a1a;">ktc<tspan x="1610.88px " y="638.208px ">h</tspan></text><g><path d="M657.237,165.452c0,-48.716 -39.551,-88.268 -88.267,-88.268l-414.016,0c-48.717,0 -88.268,39.552 -88.268,88.268l-0,414.016c-0,48.716 39.551,88.267 88.268,88.267l414.016,0c48.716,0 88.267,-39.551 88.267,-88.267l0,-414.016Z"/><g><path d="M209.949,178.222l297.463,-0" style="fill:none;stroke:#fff;stroke-width:41.67px;"/><path d="M209.949,326.835l297.463,-0" style="fill:none;stroke:#fff;stroke-width:41.67px;"/><path d="M507.412,326.835l148.732,-148.613" style="fill:none;stroke:#fff;stroke-width:41.67px;stroke-linejoin:round;"/><path d="M507.412,624.246l148.732,-148.613" style="fill:none;stroke:#fff;stroke-width:25px;stroke-linejoin:round;"/><path d="M507.412,475.448l148.732,-148.613" style="fill:none;stroke:#fff;stroke-width:33.33px;stroke-linejoin:round;"/><path d="M321.498,178.222l-111.549,446.024" style="fill:none;stroke:#fff;stroke-width:41.67px;"/><path d="M395.864,178.222l111.548,446.024" style="fill:none;stroke:#fff;stroke-width:41.67px;"/></g></g></svg>