<?xml version="1.0" encoding="UTF-8" standalone="no"?><!DOCTYPE svg PUBLIC "-//W3C//DTD SVG 1.1//EN" "http://www.w3.org/Graphics/SVG/1.1/DTD/svg11.dtd"><svg width="100%" height="100%" viewBox="0 0 2066 725" version="1.1" xmlns="http://www.w3.org/2000/svg" xmlns:xlink="http://www.w3.org/1999/xlink" xml:space="preserve" xmlns:serif="http://www.serif.com/" style="fill-rule:evenodd;clip-rule:evenodd;stroke-linecap:round;stroke-miterlimit:1.5;"><g transform="matrix(1,0,0,1,247.166,-544.572)"><g transform="matrix(600,0,0,600,1726.12,1182.78)"></g><text x="465.765px" y="1182.78px" style="font-family:'ArialRoundedMTBold', 'Arial Rounded MT Bold', sans-serif;font-size:600px;fill:#1a1a1a;">ktc<tspan x="1363.71px " y="1182.78px ">h</tspan></text><path d="M851.703,859.517l-0,-35.624c-0,-13.385 0.37,-23.879 1.079,-31.484c0.87,-9.317 3.392,-17.304 7.342,-23.999c4.19,-7.307 10.158,-13.292 17.995,-17.863c7.744,-4.517 16.377,-6.83 25.928,-6.83c13.268,0 25.327,4.815 36.044,14.766c7.441,6.909 12.159,15.346 14.152,25.312c1.581,7.901 2.44,19.115 2.44,33.653l0,41.992l16.797,-0c15.064,-0 26.377,4.131 34.298,11.273c8.647,7.796 13.066,17.748 13.066,29.938c-0,16.168 -6.815,27.245 -19.603,33.713c-9.825,4.969 -23.823,7.791 -42.116,7.791l-2.442,-0l0,134.57c0,11.799 0.384,20.88 1.214,27.241c0.511,3.919 1.679,7.182 3.895,9.625c1.861,2.052 5.144,2.196 9.345,2.196c4.065,0 9.56,-0.79 16.505,-2.23c9.087,-1.884 16.19,-2.75 21.288,-2.75c9.675,-0 18.5,3.655 26.27,11.425c7.568,7.568 11.425,16.891 11.425,28.028c-0,17.589 -8.941,31.505 -28.129,40.832c-15.343,7.458 -37.342,11.512 -66.109,11.512c-28.05,-0 -49.197,-5.201 -63.66,-14.625c-15.559,-10.137 -25.754,-24.164 -30.587,-42.081c-4.224,-15.659 -6.437,-36.561 -6.437,-62.728l-0,-141.039c-14.293,-0.343 -25.119,-4.472 -32.793,-11.403c-8.762,-7.915 -13.203,-17.923 -13.203,-30.077c-0,-12.283 4.664,-22.342 13.947,-30.197c7.576,-6.41 18.172,-10.346 32.049,-10.937Zm3.711,12.423c-12.109,-0 -21.338,2.685 -27.686,8.056c-6.347,5.371 -9.521,12.256 -9.521,20.655c-0,8.398 3.027,15.332 9.082,20.8c6.055,5.469 14.844,8.204 26.367,8.204l10.547,-0l-0,153.515c-0,24.805 2.002,44.629 6.006,59.473c4.004,14.844 12.451,26.465 25.342,34.863c12.89,8.399 31.836,12.598 56.836,12.598c26.367,-0 46.582,-3.418 60.644,-10.254c14.063,-6.836 21.094,-16.699 21.094,-29.59c-0,-7.617 -2.588,-14.014 -7.764,-19.189c-5.176,-5.176 -10.986,-7.764 -17.431,-7.764c-4.493,-0 -10.743,0.83 -18.75,2.49c-8.008,1.66 -14.356,2.49 -19.043,2.49c-8.594,0 -14.795,-2.099 -18.604,-6.298c-3.809,-4.2 -6.152,-9.668 -7.031,-16.407c-0.879,-6.738 -1.319,-16.357 -1.319,-28.857l0,-147.07l14.942,-0c15.82,-0 27.978,-2.149 36.474,-6.446c8.497,-4.297 12.745,-11.816 12.745,-22.558c-0,-8.399 -2.979,-15.284 -8.936,-20.655c-5.957,-5.371 -14.6,-8.056 -25.928,-8.056l-29.297,-0l0,-54.492c0,-13.477 -0.732,-23.877 -2.197,-31.202c-1.465,-7.324 -4.931,-13.525 -10.4,-18.603c-8.203,-7.617 -17.383,-11.426 -27.539,-11.426c-7.227,0 -13.77,1.709 -19.629,5.127c-5.86,3.418 -10.352,7.861 -13.477,13.33c-3.125,5.274 -5.029,11.572 -5.713,18.897c-0.683,7.324 -1.025,17.431 -1.025,30.322l-0,48.047l-8.789,-0Zm-159.799,288.041l-62.569,-102.809l-28.218,26.693l-0,58.192c-0,19.292 -5.58,33.95 -15.715,44.329c-10.673,10.93 -23.033,16.218 -36.922,16.218c-16.383,-0 -29.133,-5.748 -38.494,-16.67c-8.64,-10.08 -13.557,-24.783 -13.557,-44.463l0,-341.016c0,-21.081 4.583,-36.987 12.691,-47.991c9.212,-12.501 22.253,-19.001 39.36,-19.001c16.326,0 29.184,5.802 38.772,16.945c8.845,10.279 13.865,25.28 13.865,45.36l-0,162.72l68.388,-71.73c11.836,-12.458 20.92,-20.916 27.15,-25.484c7.899,-5.793 17.456,-8.865 28.778,-8.865c13.438,-0 24.582,4.422 33.54,12.985c9.163,8.759 13.824,19.708 13.824,32.913c-0,6.512 -2.091,13.994 -6.91,22.243c-5.682,9.725 -15.505,21.086 -29.7,33.88l-34.719,31.846l76.406,120.066c0.006,0.009 0.011,0.019 0.017,0.028c6.285,9.933 10.785,17.491 13.521,22.661c3.714,7.014 5.408,13.73 5.408,20.057c0,16.388 -4.873,29.169 -13.823,38.623c-9.254,9.776 -21.349,14.893 -36.47,14.893c-13.67,-0 -24.016,-4.19 -31.397,-11.572c-5.66,-5.66 -13.396,-15.869 -23.039,-30.753c-0.064,-0.098 -0.126,-0.197 -0.187,-0.298Zm10.678,-6.498c8.984,13.867 16.113,23.437 21.387,28.711c5.273,5.273 12.792,7.91 22.558,7.91c11.328,-0 20.459,-3.662 27.393,-10.987c6.933,-7.324 10.4,-17.333 10.4,-30.029c0,-4.492 -1.318,-9.228 -3.955,-14.209c-2.637,-4.98 -6.982,-12.256 -13.037,-21.826l-82.031,-128.906l42.48,-38.965c21.68,-19.531 32.52,-35.156 32.52,-46.875c-0,-9.57 -3.321,-17.529 -9.961,-23.877c-6.641,-6.348 -14.942,-9.521 -24.903,-9.521c-8.398,-0 -15.527,2.148 -21.386,6.445c-5.86,4.297 -14.356,12.305 -25.489,24.023l-89.941,94.336l-0,-193.945c-0,-16.406 -3.613,-28.809 -10.84,-37.207c-7.226,-8.399 -16.992,-12.598 -29.297,-12.598c-12.695,0 -22.461,4.639 -29.297,13.916c-6.836,9.278 -10.254,22.803 -10.254,40.576l0,341.016c0,16.016 3.516,28.125 10.547,36.328c7.032,8.203 16.7,12.305 29.004,12.305c10.547,-0 19.873,-4.151 27.979,-12.451c8.105,-8.301 12.158,-20.166 12.158,-35.596l-0,-63.574l43.359,-41.016l70.606,116.016Zm656.445,-62.403c0,11.761 -3.339,24.377 -10.372,37.752c-6.635,12.618 -16.672,24.705 -30.27,36.126c-13.289,11.164 -29.992,20.227 -50.192,27.031c-19.738,6.649 -41.961,10.029 -66.685,10.029c-53.326,-0 -94.799,-15.955 -124.728,-47.044c-29.839,-30.994 -45.097,-72.426 -45.097,-124.538c0,-34.942 6.861,-65.806 20.38,-92.637c13.833,-27.451 33.851,-48.664 60.025,-63.667c25.768,-14.769 56.526,-22.309 92.349,-22.309c22.207,-0 42.574,3.29 61.115,9.784c18.735,6.563 34.583,15.086 47.602,25.459c13.347,10.634 23.484,22.03 30.537,34.075c7.654,13.07 11.235,25.334 11.235,36.639c-0,13.164 -4.868,24.328 -14.674,33.463c-9.479,8.829 -20.943,13.314 -34.448,13.314c-9.748,-0 -17.775,-2.742 -24.227,-7.76c-5.102,-3.968 -10.925,-10.286 -17.274,-19.13c-0.099,-0.138 -0.196,-0.278 -0.289,-0.42c-8.748,-13.297 -17.786,-23.366 -27.322,-30.015c-8.75,-6.101 -19.94,-8.886 -33.427,-8.886c-19.557,0 -35.326,7.618 -47.287,22.892c-12.96,16.55 -19.021,39.304 -19.021,68.026c-0,13.756 1.662,26.4 5.057,37.923c3.221,10.935 7.822,20.289 13.925,28.003c5.774,7.297 12.737,12.849 20.917,16.618c8.37,3.856 17.57,5.737 27.581,5.737c13.349,0 24.83,-2.929 34.353,-9.115c9.93,-6.45 18.585,-16.402 26.225,-29.611c5.65,-10.366 11.834,-18.421 18.383,-24.292c7.948,-7.126 17.633,-10.81 29.145,-10.81c13.553,0 24.809,5.136 33.754,15.437c8.645,9.955 12.73,20.661 12.73,31.926Zm-12.5,0c0,-8.398 -3.223,-16.308 -9.668,-23.73c-6.445,-7.422 -14.551,-11.133 -24.316,-11.133c-8.203,0 -15.137,2.539 -20.801,7.617c-5.664,5.078 -10.938,12.11 -15.82,21.094c-8.789,15.234 -18.897,26.563 -30.323,33.984c-11.425,7.422 -25.146,11.133 -41.162,11.133c-11.914,0 -22.851,-2.295 -32.812,-6.885c-9.961,-4.589 -18.457,-11.328 -25.489,-20.214c-7.031,-8.887 -12.402,-19.629 -16.113,-32.227c-3.711,-12.598 -5.566,-26.416 -5.566,-41.455c-0,-32.031 7.226,-57.275 21.679,-75.732c14.454,-18.457 33.497,-27.686 57.129,-27.686c16.407,0 29.932,3.711 40.577,11.133c10.644,7.422 20.849,18.555 30.615,33.398c5.469,7.617 10.4,13.135 14.795,16.553c4.394,3.418 9.912,5.127 16.552,5.127c10.157,-0 18.799,-3.32 25.928,-9.961c7.129,-6.641 10.694,-14.746 10.694,-24.316c-0,-9.375 -3.174,-19.483 -9.522,-30.323c-6.348,-10.84 -15.527,-21.045 -27.539,-30.615c-12.012,-9.57 -26.66,-17.383 -43.945,-23.437c-17.285,-6.055 -36.28,-9.082 -56.983,-9.082c-33.398,-0 -62.109,6.884 -86.133,20.654c-24.023,13.769 -42.382,33.252 -55.078,58.447c-12.695,25.195 -19.043,54.199 -19.043,87.012c0,48.437 13.868,87.06 41.602,115.869c27.734,28.809 66.309,43.213 115.723,43.213c23.242,-0 44.14,-3.125 62.695,-9.375c18.555,-6.25 33.935,-14.502 46.142,-24.756c12.207,-10.254 21.29,-21.045 27.247,-32.373c5.957,-11.328 8.935,-21.973 8.935,-31.934Zm145.508,-296.484c-0,0 -0,88.428 -0,88.427c3.368,-2.869 6.709,-5.472 10.02,-7.813c10.789,-7.629 22.718,-13.36 35.796,-17.175c12.805,-3.734 26.567,-5.626 41.293,-5.626c22.574,-0 42.575,4.871 60.048,14.422c17.759,9.706 31.756,23.78 41.92,42.267c6.377,10.822 10.698,22.896 12.904,36.243c2.051,12.406 3.097,26.707 3.097,42.907l0,153.223c0,19.768 -5.122,34.528 -14.162,44.653c-9.689,10.852 -22.456,16.48 -38.475,16.48c-13.896,-0 -24.899,-3.78 -33.237,-10.614c-11.828,-9.697 -18.813,-26.279 -18.813,-50.519l-0,-135.059c-0,-22.932 -3.037,-40.641 -9.864,-52.982c-5.614,-10.148 -16.731,-14.205 -32.422,-14.205c-11.578,-0 -22.014,3.271 -31.293,9.853c-9.449,6.704 -16.468,15.904 -21.189,27.523c-3.95,11.155 -5.623,30.877 -5.623,59.108l-0,105.762c-0,19.455 -4.944,34.118 -13.711,44.326c-9.435,10.986 -22.416,16.807 -39.219,16.807c-13.896,-0 -24.899,-3.78 -33.237,-10.614c-11.828,-9.697 -18.814,-26.279 -18.814,-50.519l0,-346.875c0,-19.904 4.889,-34.648 13.402,-44.6c9.228,-10.788 22.012,-16.533 38.649,-16.533c16.784,0 29.747,5.761 39.172,16.605c8.773,10.096 13.758,24.818 13.758,44.528Zm-12.5,0c-0,-16.016 -3.565,-28.125 -10.693,-36.328c-7.129,-8.203 -17.041,-12.305 -29.737,-12.305c-12.5,0 -22.217,4.053 -29.15,12.158c-6.934,8.106 -10.401,20.264 -10.401,36.475l0,346.875c0,32.422 13.184,48.633 39.551,48.633c12.696,-0 22.608,-4.151 29.737,-12.451c7.128,-8.301 10.693,-20.362 10.693,-36.182l-0,-105.762c-0,-30.468 2.148,-51.66 6.445,-63.574c5.664,-14.062 14.209,-25.146 25.635,-33.252c11.426,-8.105 24.268,-12.158 38.525,-12.158c21.289,-0 35.743,6.885 43.36,20.654c7.617,13.77 11.426,33.447 11.426,59.033l-0,135.059c-0,32.422 13.183,48.633 39.55,48.633c12.11,-0 21.826,-4.102 29.151,-12.305c7.324,-8.203 10.986,-20.312 10.986,-36.328l0,-153.223c0,-15.429 -0.977,-29.052 -2.93,-40.869c-1.953,-11.816 -5.761,-22.51 -11.425,-32.08c-8.985,-16.406 -21.338,-28.906 -37.061,-37.5c-15.723,-8.594 -33.74,-12.89 -54.053,-12.89c-13.476,-0 -26.074,1.708 -37.793,5.126c-11.718,3.418 -22.412,8.545 -32.08,15.381c-9.668,6.836 -19.58,16.114 -29.736,27.832l-0,-118.652Z" style="fill:#fff;"/></g><g><path d="M657.237,165.452c0,-48.716 -39.551,-88.268 -88.267,-88.268l-414.016,0c-48.717,0 -88.268,39.552 -88.268,88.268l-0,414.016c-0,48.716 39.551,88.267 88.268,88.267l414.016,0c48.716,0 88.267,-39.551 88.267,-88.267l0,-414.016Z"/><g><path d="M209.949,178.222l297.463,-0" style="fill:none;stroke:#fff;stroke-width:41.67px;"/><path d="M209.949,326.835l297.463,-0" style="fill:none;stroke:#fff;stroke-width:41.67px;"/><path d="M507.412,326.835l148.732,-148.613" style="fill:none;stroke:#fff;stroke-width:41.67px;stroke-linejoin:round;"/><path d="M507.412,624.246l148.732,-148.613" style="fill:none;stroke:#fff;stroke-width:25px;stroke-linejoin:round;"/><path d="M507.412,475.448l148.732,-148.613" style="fill:none;stroke:#fff;stroke-width:33.33px;stroke-linejoin:round;"/><path d="M321.498,178.222l-111.549,446.024" style="fill:none;stroke:#fff;stroke-width:41.67px;"/><path d="M395.864,178.222l111.548,446.024" style="fill:none;stroke:#fff;stroke-width:41.67px;"/></g></g></svg>